HIERARCHY
ROOT Hips
{
  OFFSET 72.101 93.8116 19.2637
  CHANNELS 6 Xposition Yposition Zposition Zrotation Xrotation Yrotation
  JOINT spine
  {
    OFFSET 0 7.80058 0.448573
    CHANNELS 3 Zrotation Xrotation Yrotation
    JOINT spine1
    {
      OFFSET 0 10.1364 0
      CHANNELS 3 Zrotation Xrotation Yrotation
      JOINT spine2
      {
        OFFSET 0 9.71251 0
        CHANNELS 3 Zrotation Xrotation Yrotation
        JOINT Neck
        {
          OFFSET 0 24.9361 1.18887
          CHANNELS 3 Zrotation Xrotation Yrotation
          JOINT Head
          {
            OFFSET 0 7.53384 0
            CHANNELS 3 Zrotation Xrotation Yrotation
            End Site
            {
              OFFSET 0 18.2361 -6.01402
            }
          }
        }
        JOINT RightShoulder
        {
          OFFSET -4.08965 10.4888 -0.569457
          CHANNELS 3 Zrotation Xrotation Yrotation
          JOINT RightArm
          {
            OFFSET 0 13.757 0
            CHANNELS 3 Zrotation Xrotation Yrotation
            JOINT RightArmRoll
            {
              OFFSET 0 6.94478 0
              CHANNELS 3 Zrotation Xrotation Yrotation
              JOINT RightForeArm
              {
                OFFSET 0 20.2277 0
                CHANNELS 3 Zrotation Xrotation Yrotation
                JOINT RightForeArmRoll
                {
                  OFFSET 0 7.79312 0
                  CHANNELS 3 Zrotation Xrotation Yrotation
                  JOINT RightHand
                  {
                    OFFSET 0 15.6391 0
                    CHANNELS 3 Zrotation Xrotation Yrotation
                    End Site
                    {
                      OFFSET 0 0 0
                    }
                  }
                }
              }
            }
          }
        }
        JOINT LeftShoulder
        {
          OFFSET 4.08965 10.4888 -0.569457
          CHANNELS 3 Zrotation Xrotation Yrotation
          JOINT LeftArm
          {
            OFFSET 0 13.757 0
            CHANNELS 3 Zrotation Xrotation Yrotation
            JOINT LeftArmRoll
            {
              OFFSET 0 6.94478 0
              CHANNELS 3 Zrotation Xrotation Yrotation
              JOINT LeftForeArm
              {
                OFFSET 0 20.2277 0
                CHANNELS 3 Zrotation Xrotation Yrotation
                JOINT LeftForeArmRoll
                {
                  OFFSET 0 7.79312 0
                  CHANNELS 3 Zrotation Xrotation Yrotation
                  JOINT LeftHand
                  {
                    OFFSET 0 15.6391 0
                    CHANNELS 3 Zrotation Xrotation Yrotation
                    End Site
                    {
                      OFFSET 0 0 0
                    }
                  }
                }
              }
            }
          }
        }
      }
    }
  }
  JOINT RightUpLeg
  {
    OFFSET -6.91415 -1.26788 -1.06358
    CHANNELS 3 Zrotation Xrotation Yrotation
    JOINT RightUpLegRoll
    {
      OFFSET 0 18.3378 0
      CHANNELS 3 Zrotation Xrotation Yrotation
      JOINT RightLeg
      {
        OFFSET 0 -22.7085 0
        CHANNELS 3 Zrotation Xrotation Yrotation
        JOINT RightLegRoll
        {
          OFFSET 0 22.7828 0
          CHANNELS 3 Zrotation Xrotation Yrotation
          JOINT RightFoot
          {
            OFFSET 0 18.9629 0
            CHANNELS 3 Zrotation Xrotation Yrotation
            JOINT RightToeBase
            {
              OFFSET 0 15.852 0
              CHANNELS 3 Zrotation Xrotation Yrotation
              End Site
              {
                OFFSET 0.00671906 7.67701 -0.884893
              }
            }
          }
        }
      }
    }
  }
  JOINT LeftUpLeg
  {
    OFFSET 6.91415 -1.26788 -1.06358
    CHANNELS 3 Zrotation Xrotation Yrotation
    JOINT LeftUpLegRoll
    {
      OFFSET 0 18.3379 0
      CHANNELS 3 Zrotation Xrotation Yrotation
      JOINT LeftLeg
      {
        OFFSET 0 22.7084 0
        CHANNELS 3 Zrotation Xrotation Yrotation
        JOINT LeftLegRoll
        {
          OFFSET 0 22.9934 0
          CHANNELS 3 Zrotation Xrotation Yrotation
          JOINT LeftFoot
          {
            OFFSET 0 18.7522 0
            CHANNELS 3 Zrotation Xrotation Yrotation
            JOINT LeftToeBase
            {
              OFFSET 0 15.852 0
              CHANNELS 3 Zrotation Xrotation Yrotation
              End Site
              {
                OFFSET -0.030112 7.677 -0.884893
              }
            }
          }
        }
      }
    }
  }
}
MOTION
Frames: 12
Frame Time: 0.00208333
56.4644 94.0341 9.01148 -1.41911 -2.15343 -1.35509 -0.26051 1.81276 0.250696 -0.534497 7.62703 0.544638 -0.542494 9.27206 0.554727 -27.9528 -6.86618 0.462889 28.8457 -1.06979 1.04542 34.0518 -3.5504 0.190293 172.854 34.2068 -107.33 -1.69916e-007 -2.6281e-005 3.16789e-009 45.454 55.789 -23.7617 -5.92635e-006 -7.81362e-006 -3.00368 8.02968 -4.95143 0.697493 -69.7567 -3.73776 3.14442 -102.525 19.2963 -10.6069 -1.15544e-014 -3.47873e-015 -0 -2.6991 33.1159 2.33126 2.44588e-006 1.71546e-006 3 -8.03001 -4.95142 -0.69765 177.351 4.22181 -0.61644 180 7.01574e-015 179.046 179.597 10.3574 179.335 -1.26223e-006 2.81689e-007 -0.022076 -15.6776 67.4136 19.0921 8.12629 25.234 -3.4823 -178.727 7.9043 4.74431 4.54188e-006 -4.6773e-006 -1.38899 -6.55636 -16.7219 -0.786778 -4.23865e-006 -5.89771e-006 -0.270253 28.7966 73.1331 -25.8857 -8.13649 25.2327 3.48773 
56.458 94.0278 9.00034 -1.42126 -2.15749 -1.32477 -0.262409 1.81713 0.251464 -0.537329 7.63577 0.546389 -0.54536 9.28079 0.556531 -28.0139 -6.86995 0.520064 28.8986 -1.04495 1.09776 33.9563 -3.54136 0.210339 172.956 34.1996 -107.402 -1.69916e-007 -2.6281e-005 3.16789e-009 45.4919 55.7895 -23.7922 -5.92635e-006 -7.81362e-006 -3.00368 8.02968 -4.95143 0.697493 -69.7834 -3.75227 3.15344 -102.511 19.3674 -10.6178 -1.05107e-014 -1.2921e-015 1.59028e-015 -2.66462 33.1554 2.31409 2.44588e-006 1.71546e-006 3 -8.03001 -4.95142 -0.69765 177.343 4.23807 -0.597579 180 7.01574e-015 179.046 179.578 10.4119 179.338 -1.26223e-006 2.81689e-007 -0.0200772 -15.7158 67.4458 19.1148 8.12629 25.234 -3.4823 -178.726 7.91617 4.74131 4.54188e-006 -4.6773e-006 -1.38903 -6.55846 -16.7461 -0.788384 -4.23865e-006 -5.89771e-006 -0.270814 28.8154 73.1397 -25.8977 -8.13649 25.2327 3.48773 
56.4635 94.0236 9.02336 -1.42326 -2.16122 -1.29478 -0.264373 1.8214 0.252241 -0.540181 7.6443 0.548159 -0.548247 9.28932 0.558354 -28.0766 -6.87376 0.576879 28.9534 -1.0197 1.14971 33.86 -3.53203 0.230758 173.059 34.192 -107.475 -1.69916e-007 -2.6281e-005 3.16789e-009 45.5303 55.7913 -23.824 -5.92635e-006 -7.81362e-006 -3.00368 8.02968 -4.95143 0.697493 -69.8111 -3.76636 3.16232 -102.497 19.438 -10.6291 -9.81499e-015 -8.94531e-016 -6.36111e-015 -2.63006 33.1964 2.29692 2.44588e-006 1.71546e-006 3 -8.03001 -4.95142 -0.69765 177.335 4.25459 -0.578725 180 7.01574e-015 179.045 179.559 10.4661 179.34 -1.26223e-006 2.81689e-007 -0.0181269 -15.7536 67.4775 19.1372 8.12629 25.234 -3.4823 -178.725 7.92798 4.73838 4.54188e-006 -4.6773e-006 -1.38906 -6.56066 -16.7696 -0.789964 -4.23865e-006 -5.89771e-006 -0.271382 28.8337 73.1458 -25.9092 -8.13649 25.2327 3.48773 
56.4667 94.0192 9.02048 -1.42514 -2.16472 -1.26503 -0.266381 1.8256 0.253027 -0.543046 7.65268 0.549941 -0.551147 9.29771 0.560189 -28.1404 -6.8776 0.633442 29.0096 -0.994155 1.2014 33.7629 -3.52251 0.251439 173.163 34.1842 -107.548 -1.69916e-007 -2.6281e-005 3.16788e-009 45.5691 55.794 -23.8567 -5.92635e-006 -7.81362e-006 -3.00368 8.02968 -4.95143 0.697493 -69.8394 -3.78017 3.1711 -102.483 19.5083 -10.6407 -6.65929e-015 -1.09332e-015 1.59028e-015 -2.59543 33.2385 2.27973 2.44588e-006 1.71546e-006 3 -8.03001 -4.95142 -0.69765 177.327 4.27131 -0.559874 180 7.01573e-015 179.045 179.541 10.52 179.342 -1.26223e-006 2.81689e-007 -0.0162105 -15.7911 67.5091 19.1594 8.12629 25.234 -3.4823 -178.725 7.93974 4.73549 4.54188e-006 -4.6773e-006 -1.38908 -6.56292 -16.7928 -0.791525 -4.23865e-006 -5.89771e-006 -0.271954 28.8517 73.1517 -25.9203 -8.13649 25.2327 3.48773 
56.4744 94.0183 9.02615 -1.42697 -2.1681 -1.23542 -0.268415 1.82976 0.253816 -0.545918 7.66099 0.55173 -0.554056 9.30601 0.562032 -28.2047 -6.88146 0.689862 29.0665 -0.968443 1.25292 33.6655 -3.51287 0.272268 173.267 34.1762 -107.622 -1.69916e-007 -2.6281e-005 3.16789e-009 45.6081 55.7973 -23.89 -5.92635e-006 -7.81362e-006 -3.00368 8.02968 -4.95143 0.697493 -69.868 -3.79381 3.17984 -102.468 19.5784 -10.6524 -9.56651e-015 -3.97569e-015 3.18055e-015 -2.56075 33.2811 2.26254 2.44588e-006 1.71546e-006 3 -8.03001 -4.95142 -0.69765 177.319 4.28813 -0.541025 180 7.01573e-015 179.045 179.522 10.5737 179.345 -1.26223e-006 2.81689e-007 -0.0143135 -15.8284 67.5405 19.1817 8.12629 25.234 -3.4823 -178.725 7.95148 4.73263 4.54188e-006 -4.6773e-006 -1.38908 -6.56522 -16.8156 -0.793077 -4.23865e-006 -5.89771e-006 -0.272529 28.8696 73.1574 -25.9311 -8.13649 25.2327 3.48773 
56.4786 94.0192 9.03102 -1.42877 -2.17144 -1.20583 -0.270455 1.83391 0.254606 -0.548793 7.66928 0.553521 -0.556968 9.3143 0.563876 -28.2692 -6.88532 0.746246 29.1235 -0.94269 1.30441 33.5681 -3.50321 0.293135 173.371 34.168 -107.695 -1.69916e-007 -2.6281e-005 3.16789e-009 45.6471 55.8007 -23.9233 -5.92635e-006 -7.81362e-006 -3.00368 8.02968 -4.95143 0.697493 -69.8968 -3.80741 3.18856 -102.454 19.6485 -10.6643 7.67806e-015 2.08724e-015 -1.59028e-015 -2.52604 33.324 2.24534 2.44588e-006 1.71546e-006 3 -8.03001 -4.95142 -0.69765 177.311 4.30498 -0.522175 180 7.01573e-015 179.044 179.504 10.6274 179.347 -1.26223e-006 2.81689e-007 -0.0124213 -15.8658 67.5719 19.2039 8.12629 25.234 -3.4823 -178.725 7.96321 4.72977 4.54188e-006 -4.6773e-006 -1.38909 -6.56754 -16.8384 -0.794626 -4.23865e-006 -5.89771e-006 -0.273104 28.8874 73.163 -25.9418 -8.13649 25.2327 3.48773 
56.4777 94.0123 9.0179 -1.43061 -2.17484 -1.17618 -0.272482 1.83808 0.255395 -0.551665 7.67761 0.555308 -0.559876 9.32262 0.565718 -28.3334 -6.88916 0.802704 29.1801 -0.91702 1.35598 33.4707 -3.4936 0.313926 173.475 34.1597 -107.769 -1.69916e-007 -2.6281e-005 3.16788e-009 45.686 55.8038 -23.9565 -5.92635e-006 -7.81362e-006 -3.00368 8.02968 -4.95143 0.697493 -69.9253 -3.8211 3.19731 -102.439 19.7187 -10.6761 1.56543e-015 -6.95746e-016 4.77083e-015 -2.4913 33.3665 2.22811 2.44588e-006 1.71546e-006 3 -8.03001 -4.95142 -0.69765 177.303 4.32177 -0.503324 180 7.01573e-015 179.044 179.485 10.6812 179.349 -1.26223e-006 2.81689e-007 -0.0105194 -15.9033 67.6033 19.2263 8.12629 25.234 -3.4823 -178.724 7.97496 4.72689 4.54188e-006 -4.6773e-006 -1.3891 -6.56983 -16.8614 -0.796181 -4.23865e-006 -5.89771e-006 -0.273678 28.9053 73.1688 -25.9527 -8.13649 25.2327 3.48773 
56.4882 94.0073 9.02843 -1.43251 -2.17841 -1.14637 -0.274478 1.8423 0.256178 -0.554528 7.68603 0.557087 -0.562775 9.33105 0.56755 -28.3968 -6.89296 0.859343 29.2357 -0.891559 1.40774 33.3739 -3.48413 0.33453 173.578 34.1514 -107.842 -1.69916e-007 -2.6281e-005 3.1679e-009 45.7247 55.8063 -23.989 -5.92635e-006 -7.81362e-006 -3.00368 8.02968 -4.95143 0.697493 -69.9534 -3.83499 3.20613 -102.425 19.789 -10.6877 -2.3382e-014 -5.46658e-015 -3.18055e-015 -2.45656 33.4083 2.21087 2.44588e-006 1.71546e-006 3 -8.03001 -4.95142 -0.69765 177.295 4.33843 -0.484468 180 7.01573e-015 179.043 179.467 10.7352 179.352 -1.26223e-006 2.81689e-007 -0.00859326 -15.9411 67.6349 19.2489 8.12629 25.234 -3.4823 -178.724 7.98673 4.72399 4.54188e-006 -4.6773e-006 -1.38911 -6.57208 -16.8846 -0.79775 -4.23865e-006 -5.89771e-006 -0.274249 28.9235 73.1748 -25.9639 -8.13649 25.2327 3.48773 
56.4933 94.0052 9.04277 -1.43452 -2.18224 -1.11628 -0.276423 1.8466 0.256952 -0.557377 7.69463 0.558852 -0.565659 9.33964 0.569367 -28.459 -6.89672 0.916271 29.2896 -0.866431 1.4598 33.2777 -3.47489 0.354835 173.681 34.1431 -107.914 -1.69916e-007 -2.6281e-005 3.16788e-009 45.763 55.8076 -24.0204 -5.92635e-006 -7.81362e-006 -3.00368 8.02968 -4.95143 0.697493 -69.9808 -3.8492 3.21505 -102.411 19.8598 -10.699 -3.49613e-014 -7.15625e-015 -3.18055e-015 -2.42184 33.4488 2.1936 2.44588e-006 1.71546e-006 3 -8.03001 -4.95142 -0.69765 177.287 4.35487 -0.465607 180 7.01573e-015 179.043 179.448 10.7895 179.354 -1.26223e-006 2.81689e-007 -0.00662843 -15.9795 67.6668 19.2718 8.12629 25.234 -3.4823 -178.724 7.99856 4.72104 4.54188e-006 -4.6773e-006 -1.38915 -6.57426 -16.9084 -0.799341 -4.23865e-006 -5.89771e-006 -0.274815 28.942 73.181 -25.9756 -8.13649 25.2327 3.48773 
56.4962 94.0051 9.04677 -1.4367 -2.18643 -1.08582 -0.278298 1.85101 0.257715 -0.560207 7.70344 0.560597 -0.568521 9.34845 0.571165 -28.5194 -6.90041 0.973598 29.3413 -0.841762 1.51229 33.1826 -3.46596 0.374729 173.782 34.135 -107.986 -1.69916e-007 -2.6281e-005 3.16789e-009 45.8008 55.8075 -24.0504 -5.92635e-006 -7.81362e-006 -3.00368 8.02968 -4.95143 0.697493 -70.0071 -3.86386 3.22412 -102.397 19.931 -10.7099 8.44835e-015 1.59028e-015 4.77083e-015 -2.38715 33.4876 2.1763 2.44588e-006 1.71546e-006 3 -8.03001 -4.95142 -0.69765 177.279 4.37101 -0.446738 180 7.01573e-015 179.042 179.429 10.8442 179.357 -1.26223e-006 2.81689e-007 -0.00461036 -16.0185 67.699 19.2951 8.12629 25.234 -3.4823 -178.723 8.01045 4.71803 4.54188e-006 -4.6773e-006 -1.3892 -6.57634 -16.9328 -0.800962 -4.23865e-006 -5.89771e-006 -0.275374 28.9609 73.1877 -25.988 -8.13649 25.2327 3.48773 
56.5021 94.0015 9.06457 -1.43907 -2.19107 -1.05489 -0.280085 1.85557 0.258464 -0.563012 7.71254 0.562317 -0.571357 9.35755 0.572938 -28.5777 -6.90401 1.03143 29.3903 -0.817677 1.56532 33.0888 -3.45742 0.394099 173.883 34.127 -108.058 -1.69916e-007 -2.6281e-005 3.16789e-009 45.8378 55.8054 -24.0786 -5.92635e-006 -7.81362e-006 -3.00368 8.02968 -4.95143 0.697493 -70.0322 -3.8791 3.23339 -102.384 20.0029 -10.7204 5.36719e-015 2.38542e-015 -1.59028e-015 -2.35251 33.5243 2.15897 2.44588e-006 1.71546e-006 3 -8.03001 -4.95142 -0.69765 177.272 4.38677 -0.427859 180 7.01573e-015 179.042 179.411 10.8995 179.359 -1.26223e-006 2.81689e-007 -0.00252451 -16.0583 67.7317 19.3188 8.12629 25.234 -3.4823 -178.722 8.02244 4.71493 4.54188e-006 -4.6773e-006 -1.38929 -6.57829 -16.9581 -0.802622 -4.23865e-006 -5.89771e-006 -0.275923 28.9805 73.1949 -26.0012 -8.13649 25.2327 3.48773 
56.5037 93.9943 9.06105 -1.44169 -2.19627 -1.02339 -0.281763 1.86029 0.259195 -0.565787 7.72198 0.564007 -0.574159 9.36699 0.574679 -28.6333 -6.90752 1.08988 29.4359 -0.7943 1.619 32.9965 -3.44936 0.412835 173.982 34.1192 -108.128 -1.69916e-007 -2.6281e-005 3.16789e-009 45.8739 55.801 -24.1046 -5.92635e-006 -7.81362e-006 -3.00368 8.02968 -4.95143 0.697493 -70.0558 -3.89503 3.24288 -102.371 20.0756 -10.7302 6.06293e-015 5.96354e-016 -3.18055e-015 -2.31795 33.5584 2.14161 2.44588e-006 1.71546e-006 3 -8.03001 -4.95142 -0.69765 177.264 4.40207 -0.408969 180 7.01573e-015 179.041 179.392 10.9555 179.361 -1.26223e-006 2.81689e-007 -0.000356369 -16.0992 67.7649 19.3432 8.12629 25.234 -3.4823 -178.72 8.03453 4.71172 4.54188e-006 -4.6773e-006 -1.3894 -6.58009 -16.9844 -0.804328 -4.23865e-006 -5.89771e-006 -0.276462 29.0008 73.2028 -26.0155 -8.13649 25.2327 3.48773 
